<svg width="605" height="379" viewBox="0 0 605 379" fill="none" xmlns="http://www.w3.org/2000/svg">
<path d="M450.875 378.483H123.057C91.2563 378.459 60.6975 366.132 37.7783 344.085C14.859 322.037 1.35626 291.977 0.0967231 260.198C-1.16281 228.419 9.91855 197.385 31.021 173.592C52.1234 149.8 81.6107 135.093 113.31 132.552C117.83 100.629 132.245 70.9263 154.525 47.6234C176.805 24.3204 205.829 8.58957 237.515 2.64407C269.201 -3.30144 301.953 0.837578 331.164 14.4788C360.375 28.12 384.574 50.577 400.358 78.6902C429.307 68.668 460.585 67.497 490.203 75.3266C519.82 83.1561 546.434 99.6313 566.65 122.651C586.867 145.67 599.768 174.19 603.71 204.573C607.652 234.956 602.455 265.824 588.782 293.241C580.758 318.011 565.095 339.603 544.039 354.917C522.983 370.231 497.617 378.481 471.582 378.483H450.875Z" fill="url(#paint0_linear_303_26)"/>
<defs>
<linearGradient id="paint0_linear_303_26" x1="302.496" y1="0" x2="478.295" y2="424.996" gradientUnits="userSpaceOnUse">
<stop stop-color="#DCEAFD"/>
<stop offset="1" stop-color="#DAE7FC"/>
</linearGradient>
</defs>
</svg>
